<svg xmlns="http://www.w3.org/2000/svg" viewBox="0 0 37 39" width="37" height="39">
	<style>
		tspan { white-space:pre }
		.shp0 { fill: #ffffff } 
	</style>
	<path id="Rectangle 9 copy" class="shp0" d="M8.34,18.2c0,0 0,17.18 0,18.57c0.19,0.68 1.08,1.23 2.29,1.23c0.45,0 11.78,0 15.89,0c3.4,0 4.92,-1.5 5.49,-2.85c0.43,-1.01 -0.13,-2.32 -0.9,-2.79c1.19,-0.36 2.39,-0.98 2.6,-2.66c0.21,-1.69 -0.76,-2.35 -1.46,-2.7c1.12,0 2.82,-0.89 2.82,-2.86c0,-1.95 -1.64,-2.59 -1.64,-2.59c0,0 2.56,-0.7 2.56,-3.01c0,-2.47 -1.42,-3.24 -3.23,-3.24c-1.13,0 -12.78,-0.01 -12.78,-0.01c0,0 1.83,-5.04 1.58,-7.6c-0.56,-5.92 -3.77,-6.85 -5.48,-6.67c-1.71,0.18 -2.43,1.17 -2.17,4.79c0.25,3.61 -1.25,5.39 -5.49,11.64c-0.09,0.16 -0.09,0.75 -0.09,0.75zM1,38h6.22v-21.75h-6.22zM0,38h6.22v-21.75h-6.22z" />
</svg>