<svg xmlns="http://www.w3.org/2000/svg" viewBox="0 0 25 28" width="25" height="28">
	<style>
		tspan { white-space:pre }
		.shp0 { fill: #ffffff } 
	</style>
	<path id="Composite Path" class="shp0" d="M10.26 2.59C14.66 2.59 18.94 5.47 18.94 11.22C18.94 16.96 14.66 19.84 10.26 19.84C5.86 19.84 1.58 16.96 1.58 11.22C1.58 5.47 5.86 2.59 10.26 2.59ZM10.26 1C5.19 1 0 4.4 0 11.22C0 18.03 5.19 21.43 10.26 21.43C12.17 21.43 14.09 20.95 15.75 19.99L22.42 27L24 25.41L17.56 18.64C19.34 16.94 20.52 14.47 20.52 11.22C20.52 4.4 15.33 1 10.26 1Z" />
</svg>